<svg class="bob" font-family="arial" font-size="14" height="288" width="600" xmlns="http://www.w3.org/2000/svg">
<defs>
<marker id="triangle" markerHeight="8" markerWidth="8" orient="auto" refX="4" refY="2" viewBox="0 0 8 4">
<polygon fill="black" points="0,0 0,4 8,2 0,0"/>
</marker>
<marker id="clear_triangle" markerHeight="10" markerWidth="10" orient="auto" refX="1" refY="7" viewBox="0 0 20 14">
<polygon fill="none" points="2,2 2,12 18,7 2,2" stroke="black" stroke-width="2"/>
</marker>
<marker id="circle" markerHeight="5" markerWidth="5" orient="auto" refX="10" refY="10" viewBox="0 0 20 20">
<circle cx="10" cy="10" fill="black" r="8"/>
</marker>
<marker id="square" markerHeight="5" markerWidth="5" orient="auto" refX="10" refY="10" viewBox="0 0 20 20">
<rect fill="black" height="20" width="20" x="0" y="0"/>
</marker>
<marker id="open_circle" markerHeight="10" markerWidth="10" orient="auto" refX="10" refY="10" viewBox="0 0 20 20">
<circle cx="10" cy="10" fill="white" r="4" stroke="black" stroke-width="2"/>
</marker>
<marker id="big_open_circle" markerHeight="20" markerWidth="20" orient="auto" refX="20" refY="20" viewBox="0 0 40 40">
<circle cx="20" cy="20" fill="white" r="6" stroke="black" stroke-width="2"/>
</marker>
</defs>
<style type="text/css">

    line,path {
      stroke: black;
      stroke-width: 2;
      stroke-opacity: 1;
      fill-opacity: 1;
      stroke-linecap: round;
      stroke-linejoin: miter;
    }
    line.dashed {
        stroke-dasharray: 5;
    }
    circle.solid {
      fill:black;
      stroke: black;
      stroke-width: 2;
      stroke-opacity: 1;
      fill-opacity: 1;
      stroke-linecap: round;
      stroke-linejoin: miter;
    }
    circle.open {
      fill:none;
      stroke: black;
      stroke-width: 2;
      stroke-opacity: 1;
      fill-opacity: 1;
      stroke-linecap: round;
      stroke-linejoin: miter;
    }
    tspan.head{
        fill: none;
        stroke: none;
    }
    
</style>
<rect fill="white" height="288" width="600" x="0" y="0"/>
<g>
<line x1="4" x2="4" y1="24" y2="104"/>
<line x1="4" x2="76" y1="24" y2="24"/>
<line x1="4" x2="76" y1="104" y2="104"/>
<line x1="76" x2="76" y1="24" y2="104"/>
<line x1="76" x2="164" y1="24" y2="24"/>
<line x1="76" x2="164" y1="104" y2="104"/>
<line x1="164" x2="168" y1="24" y2="24"/>
<line x1="164" x2="176" y1="24" y2="48"/>
<line x1="164" x2="168" y1="104" y2="104"/>
<line x1="164" x2="176" y1="104" y2="80"/>
<line x1="168" x2="176" y1="64" y2="48"/>
<line x1="168" x2="176" y1="64" y2="80"/>
<line class="dashed" fill="none" x1="168" x2="240" y1="24" y2="24"/>
<line class="dashed" fill="none" x1="168" x2="240" y1="104" y2="104"/>
</g>
<g>
<line marker-start="url(#circle)" x1="4" x2="8" y1="184" y2="184"/>
<line class="dashed" fill="none" x1="8" x2="80" y1="184" y2="184"/>
</g>
<g>
<line marker-start="url(#circle)" x1="4" x2="8" y1="264" y2="264"/>
<line class="dashed" fill="none" x1="8" x2="80" y1="264" y2="264"/>
</g>
<g>
<line x1="72" x2="80" y1="208" y2="224"/>
<line x1="72" x2="80" y1="240" y2="224"/>
<line x1="72" x2="84" y1="240" y2="264"/>
<line x1="84" x2="72" y1="184" y2="208"/>
<line x1="84" x2="80" y1="184" y2="184"/>
<line x1="84" x2="308" y1="184" y2="184"/>
<line x1="84" x2="80" y1="264" y2="264"/>
<line x1="84" x2="308" y1="264" y2="264"/>
<line x1="308" x2="308" y1="184" y2="264"/>
<line x1="308" x2="380" y1="184" y2="184"/>
<line x1="308" x2="380" y1="264" y2="264"/>
<line x1="380" x2="380" y1="184" y2="264"/>
<line x1="380" x2="452" y1="184" y2="184"/>
<line x1="380" x2="452" y1="264" y2="264"/>
<line x1="452" x2="452" y1="184" y2="264"/>
<line x1="452" x2="532" y1="184" y2="184"/>
<line x1="452" x2="532" y1="264" y2="264"/>
<line x1="532" x2="532" y1="184" y2="264"/>
<line x1="532" x2="596" y1="184" y2="184"/>
<line x1="532" x2="596" y1="264" y2="264"/>
<line x1="596" x2="596" y1="184" y2="264"/>
</g>
<g>
<line x1="244" x2="240" y1="24" y2="24"/>
<line x1="244" x2="244" y1="24" y2="104"/>
<line x1="244" x2="340" y1="24" y2="24"/>
<line x1="244" x2="240" y1="104" y2="104"/>
<line x1="244" x2="340" y1="104" y2="104"/>
<line x1="340" x2="344" y1="24" y2="24"/>
<line x1="340" x2="352" y1="24" y2="48"/>
<line x1="340" x2="344" y1="104" y2="104"/>
<line x1="340" x2="352" y1="104" y2="80"/>
<line x1="344" x2="352" y1="64" y2="48"/>
<line x1="344" x2="352" y1="64" y2="80"/>
<line class="dashed" fill="none" x1="344" x2="416" y1="24" y2="24"/>
<line class="dashed" fill="none" x1="344" x2="416" y1="104" y2="104"/>
</g>
<g>
<line marker-end="url(#triangle)" x1="320" x2="316" y1="168" y2="168"/>
<line class="dashed" fill="none" x1="320" x2="424" y1="168" y2="168"/>
</g>
<g>
<line x1="420" x2="416" y1="24" y2="24"/>
<line x1="420" x2="420" y1="24" y2="104"/>
<line x1="420" x2="516" y1="24" y2="24"/>
<line x1="420" x2="416" y1="104" y2="104"/>
<line x1="420" x2="516" y1="104" y2="104"/>
<line x1="516" x2="520" y1="24" y2="24"/>
<line x1="516" x2="528" y1="24" y2="48"/>
<line x1="516" x2="520" y1="104" y2="104"/>
<line x1="516" x2="528" y1="104" y2="80"/>
<line x1="520" x2="528" y1="64" y2="48"/>
<line x1="520" x2="528" y1="64" y2="80"/>
<line class="dashed" fill="none" x1="520" x2="592" y1="24" y2="24"/>
<line class="dashed" fill="none" x1="520" x2="592" y1="104" y2="104"/>
</g>
<g>
<line x1="428" x2="428" y1="160" y2="176"/>
</g>
<g>
<line x1="428" x2="424" y1="168" y2="168"/>
</g>
<g>
<line x1="468" x2="468" y1="160" y2="176"/>
</g>
<g>
<line x1="472" x2="468" y1="168" y2="168"/>
<line class="dashed" fill="none" x1="472" x2="576" y1="168" y2="168"/>
</g>
<g>
<line x1="580" x2="580" y1="160" y2="176"/>
</g>
<g>
<line x1="580" x2="576" y1="168" y2="168"/>
</g>
<g>
<line marker-start="url(#circle)" x1="596" x2="592" y1="24" y2="24"/>
</g>
<g>
<line marker-start="url(#circle)" x1="596" x2="592" y1="104" y2="104"/>
</g>
<g>
<text x="1" y="12">
0
</text>
</g>
<g>
<text x="89" y="60">
Stack
</text>
</g>
<g>
<text x="137" y="60">
1
</text>
</g>
<g>
<text x="209" y="220">
Heap
</text>
</g>
<g>
<text x="257" y="60">
Stack
</text>
</g>
<g>
<text x="305" y="60">
2
</text>
</g>
<g>
<text x="321" y="220">
.bss
</text>
</g>
<g>
<text x="345" y="156">
R + W
</text>
</g>
<g>
<text x="393" y="220">
.data
</text>
</g>
<g>
<text x="433" y="60">
Stack
</text>
</g>
<g>
<text x="465" y="220">
.rodata
</text>
</g>
<g>
<text x="481" y="60">
3
</text>
</g>
<g>
<text x="505" y="156">
R + X
</text>
</g>
<g>
<text x="513" y="284">
2^64 - 1
</text>
</g>
<g>
<text x="545" y="220">
.text
</text>
</g>
</svg>