<svg class="bob" font-family="arial" font-size="14" height="336" width="664" xmlns="http://www.w3.org/2000/svg">
<defs>
<marker id="triangle" markerHeight="8" markerWidth="8" orient="auto" refX="4" refY="2" viewBox="0 0 8 4">
<polygon fill="black" points="0,0 0,4 8,2 0,0"/>
</marker>
<marker id="clear_triangle" markerHeight="10" markerWidth="10" orient="auto" refX="1" refY="7" viewBox="0 0 20 14">
<polygon fill="none" points="2,2 2,12 18,7 2,2" stroke="black" stroke-width="2"/>
</marker>
<marker id="circle" markerHeight="5" markerWidth="5" orient="auto" refX="10" refY="10" viewBox="0 0 20 20">
<circle cx="10" cy="10" fill="black" r="8"/>
</marker>
<marker id="square" markerHeight="5" markerWidth="5" orient="auto" refX="10" refY="10" viewBox="0 0 20 20">
<rect fill="black" height="20" width="20" x="0" y="0"/>
</marker>
<marker id="open_circle" markerHeight="10" markerWidth="10" orient="auto" refX="10" refY="10" viewBox="0 0 20 20">
<circle cx="10" cy="10" fill="white" r="4" stroke="black" stroke-width="2"/>
</marker>
<marker id="big_open_circle" markerHeight="20" markerWidth="20" orient="auto" refX="20" refY="20" viewBox="0 0 40 40">
<circle cx="20" cy="20" fill="white" r="6" stroke="black" stroke-width="2"/>
</marker>
</defs>
<style type="text/css">

    line,path {
      stroke: black;
      stroke-width: 2;
      stroke-opacity: 1;
      fill-opacity: 1;
      stroke-linecap: round;
      stroke-linejoin: miter;
    }
    line.dashed {
        stroke-dasharray: 5;
    }
    circle.solid {
      fill:black;
      stroke: black;
      stroke-width: 2;
      stroke-opacity: 1;
      fill-opacity: 1;
      stroke-linecap: round;
      stroke-linejoin: miter;
    }
    circle.open {
      fill:none;
      stroke: black;
      stroke-width: 2;
      stroke-opacity: 1;
      fill-opacity: 1;
      stroke-linecap: round;
      stroke-linejoin: miter;
    }
    tspan.head{
        fill: none;
        stroke: none;
    }
    
</style>
<rect fill="white" height="336" width="664" x="0" y="0"/>
<g>
<line x1="4" x2="4" y1="40" y2="64"/>
<line x1="4" x2="28" y1="40" y2="40"/>
<line x1="28" x2="28" y1="24" y2="40"/>
<line x1="28" x2="132" y1="24" y2="24"/>
<line x1="28" x2="28" y1="40" y2="56"/>
<line x1="28" x2="76" y1="56" y2="56"/>
<line marker-end="url(#triangle)" x1="76" x2="76" y1="56" y2="92"/>
<line x1="76" x2="132" y1="56" y2="56"/>
<line x1="132" x2="132" y1="24" y2="56"/>
</g>
<g>
<line x1="4" x2="4" y1="80" y2="96"/>
</g>
<g>
<line x1="4" x2="4" y1="112" y2="128"/>
</g>
<g>
<line x1="4" x2="4" y1="144" y2="184"/>
<line x1="4" x2="8" y1="184" y2="184"/>
<line class="dashed" fill="none" x1="8" x2="144" y1="184" y2="184"/>
<path d="M 150 188 A 8 8 0 0 0 144 184" fill="none"/>
</g>
<g>
<line x1="28" x2="28" y1="104" y2="136"/>
<line x1="28" x2="236" y1="104" y2="104"/>
<line x1="28" x2="236" y1="136" y2="136"/>
<line x1="236" x2="236" y1="104" y2="136"/>
</g>
<g>
<line x1="150" x2="170" y1="188" y2="228"/>
<path d="M 170 228 A 8 8 0 0 0 176 232" fill="none"/>
</g>
<g>
<line x1="236" x2="248" y1="120" y2="120"/>
<path d="M 254 124 A 8 8 0 0 0 248 120" fill="none"/>
</g>
<g>
<line x1="254" x2="266" y1="124" y2="148"/>
<path d="M 266 148 A 8 8 0 0 0 272 152" fill="none"/>
</g>
<g>
<line x1="268" x2="268" y1="0" y2="144"/>
</g>
<g>
<line x1="268" x2="268" y1="160" y2="224"/>
</g>
<g>
<line x1="268" x2="268" y1="240" y2="304"/>
</g>
<g>
<line marker-end="url(#triangle)" x1="272" x2="308" y1="152" y2="152"/>
</g>
<g>
<line marker-end="url(#triangle)" x1="312" x2="316" y1="232" y2="232"/>
<line class="dashed" fill="none" x1="176" x2="312" y1="232" y2="232"/>
</g>
<g>
<line x1="324" x2="324" y1="136" y2="168"/>
<line x1="324" x2="660" y1="136" y2="136"/>
<line x1="324" x2="372" y1="168" y2="168"/>
<line x1="372" x2="660" y1="168" y2="168"/>
<line x1="660" x2="660" y1="136" y2="168"/>
</g>
<g>
<line x1="324" x2="324" y1="216" y2="248"/>
<line x1="324" x2="452" y1="216" y2="216"/>
<line x1="324" x2="452" y1="248" y2="248"/>
<line x1="452" x2="452" y1="216" y2="248"/>
</g>
<g>
<line x1="376" x2="384" y1="230" y2="230"/>
</g>
<g>
<line x1="376" x2="384" y1="234" y2="234"/>
</g>
<g>
<line marker-end="url(#triangle)" x1="380" x2="380" y1="176" y2="204"/>
</g>
<g>
<text x="1" y="204">
Happens
</text>
</g>
<g>
<text x="33" y="44">
data = foo
</text>
</g>
<g>
<text x="33" y="124">
is_locked.store(false)
</text>
</g>
<g>
<text x="65" y="204">
Before
</text>
</g>
<g>
<text x="89" y="76">
Program
</text>
</g>
<g>
<text x="153" y="76">
Order
</text>
</g>
<g>
<text x="273" y="172">
SW
</text>
</g>
<g>
<text x="329" y="156">
is_locked.compare_and_swap(false, true)
</text>
</g>
<g>
<text x="345" y="236">
tmp
</text>
</g>
<g>
<text x="393" y="188">
PO
</text>
</g>
<g>
<text x="393" y="236">
data
</text>
</g>
</svg>