<svg class="bob" font-family="arial" font-size="14" height="128" width="320" xmlns="http://www.w3.org/2000/svg">
<defs>
<marker id="triangle" markerHeight="8" markerWidth="8" orient="auto" refX="4" refY="2" viewBox="0 0 8 4">
<polygon fill="black" points="0,0 0,4 8,2 0,0"/>
</marker>
<marker id="clear_triangle" markerHeight="10" markerWidth="10" orient="auto" refX="1" refY="7" viewBox="0 0 20 14">
<polygon fill="none" points="2,2 2,12 18,7 2,2" stroke="black" stroke-width="2"/>
</marker>
<marker id="circle" markerHeight="5" markerWidth="5" orient="auto" refX="10" refY="10" viewBox="0 0 20 20">
<circle cx="10" cy="10" fill="black" r="8"/>
</marker>
<marker id="square" markerHeight="5" markerWidth="5" orient="auto" refX="10" refY="10" viewBox="0 0 20 20">
<rect fill="black" height="20" width="20" x="0" y="0"/>
</marker>
<marker id="open_circle" markerHeight="10" markerWidth="10" orient="auto" refX="10" refY="10" viewBox="0 0 20 20">
<circle cx="10" cy="10" fill="white" r="4" stroke="black" stroke-width="2"/>
</marker>
<marker id="big_open_circle" markerHeight="20" markerWidth="20" orient="auto" refX="20" refY="20" viewBox="0 0 40 40">
<circle cx="20" cy="20" fill="white" r="6" stroke="black" stroke-width="2"/>
</marker>
</defs>
<style type="text/css">

    line,path {
      stroke: black;
      stroke-width: 2;
      stroke-opacity: 1;
      fill-opacity: 1;
      stroke-linecap: round;
      stroke-linejoin: miter;
    }
    line.dashed {
        stroke-dasharray: 5;
    }
    circle.solid {
      fill:black;
      stroke: black;
      stroke-width: 2;
      stroke-opacity: 1;
      fill-opacity: 1;
      stroke-linecap: round;
      stroke-linejoin: miter;
    }
    circle.open {
      fill:none;
      stroke: black;
      stroke-width: 2;
      stroke-opacity: 1;
      fill-opacity: 1;
      stroke-linecap: round;
      stroke-linejoin: miter;
    }
    tspan.head{
        fill: none;
        stroke: none;
    }
    
</style>
<rect fill="white" height="128" width="320" x="0" y="0"/>
<g>
<line x1="4" x2="4" y1="8" y2="40"/>
<line x1="4" x2="108" y1="8" y2="8"/>
<line x1="4" x2="4" y1="40" y2="72"/>
<line x1="4" x2="108" y1="40" y2="40"/>
<line x1="4" x2="108" y1="72" y2="72"/>
<line x1="108" x2="108" y1="8" y2="40"/>
<line x1="108" x2="108" y1="40" y2="72"/>
</g>
<g>
<line marker-end="url(#triangle)" x1="108" x2="180" y1="24" y2="24"/>
</g>
<g>
<line x1="108" x2="128" y1="56" y2="56"/>
<path d="M 134 60 A 8 8 0 0 0 128 56" fill="none"/>
</g>
<g>
<line x1="134" x2="154" y1="60" y2="100"/>
<path d="M 154 100 A 8 8 0 0 0 160 104" fill="none"/>
</g>
<g>
<line marker-end="url(#triangle)" x1="160" x2="180" y1="104" y2="104"/>
</g>
<g>
<line x1="188" x2="188" y1="8" y2="56"/>
<line x1="188" x2="292" y1="8" y2="8"/>
<line x1="188" x2="292" y1="56" y2="56"/>
<line x1="292" x2="292" y1="8" y2="56"/>
</g>
<g>
<line x1="188" x2="188" y1="88" y2="120"/>
<line x1="188" x2="316" y1="88" y2="88"/>
<line x1="188" x2="316" y1="120" y2="120"/>
<line x1="316" x2="316" y1="88" y2="120"/>
</g>
<g>
<text x="17" y="28">
Cat*
</text>
</g>
<g>
<text x="17" y="60">
AnimalVT*
</text>
</g>
<g>
<text x="193" y="108">
cat_say(Cat*)
</text>
</g>
<g>
<text x="217" y="28">
Cat
</text>
</g>
<g>
<text x="217" y="44">
Data
</text>
</g>
</svg>