<svg class="bob" font-family="arial" font-size="14" height="96" width="408" xmlns="http://www.w3.org/2000/svg">
<defs>
<marker id="triangle" markerHeight="8" markerWidth="8" orient="auto" refX="4" refY="2" viewBox="0 0 8 4">
<polygon fill="black" points="0,0 0,4 8,2 0,0"/>
</marker>
<marker id="clear_triangle" markerHeight="10" markerWidth="10" orient="auto" refX="1" refY="7" viewBox="0 0 20 14">
<polygon fill="none" points="2,2 2,12 18,7 2,2" stroke="black" stroke-width="2"/>
</marker>
<marker id="circle" markerHeight="5" markerWidth="5" orient="auto" refX="10" refY="10" viewBox="0 0 20 20">
<circle cx="10" cy="10" fill="black" r="8"/>
</marker>
<marker id="square" markerHeight="5" markerWidth="5" orient="auto" refX="10" refY="10" viewBox="0 0 20 20">
<rect fill="black" height="20" width="20" x="0" y="0"/>
</marker>
<marker id="open_circle" markerHeight="10" markerWidth="10" orient="auto" refX="10" refY="10" viewBox="0 0 20 20">
<circle cx="10" cy="10" fill="white" r="4" stroke="black" stroke-width="2"/>
</marker>
<marker id="big_open_circle" markerHeight="20" markerWidth="20" orient="auto" refX="20" refY="20" viewBox="0 0 40 40">
<circle cx="20" cy="20" fill="white" r="6" stroke="black" stroke-width="2"/>
</marker>
</defs>
<style type="text/css">

    line,path {
      stroke: black;
      stroke-width: 2;
      stroke-opacity: 1;
      fill-opacity: 1;
      stroke-linecap: round;
      stroke-linejoin: miter;
    }
    line.dashed {
        stroke-dasharray: 5;
    }
    circle.solid {
      fill:black;
      stroke: black;
      stroke-width: 2;
      stroke-opacity: 1;
      fill-opacity: 1;
      stroke-linecap: round;
      stroke-linejoin: miter;
    }
    circle.open {
      fill:none;
      stroke: black;
      stroke-width: 2;
      stroke-opacity: 1;
      fill-opacity: 1;
      stroke-linecap: round;
      stroke-linejoin: miter;
    }
    tspan.head{
        fill: none;
        stroke: none;
    }
    
</style>
<rect fill="white" height="96" width="408" x="0" y="0"/>
<g>
<line x1="4" x2="4" y1="8" y2="40"/>
<line x1="4" x2="84" y1="8" y2="8"/>
<line x1="4" x2="84" y1="40" y2="40"/>
<line x1="84" x2="84" y1="8" y2="40"/>
</g>
<g>
<line marker-end="url(#triangle)" x1="84" x2="116" y1="24" y2="24"/>
</g>
<g>
<line x1="132" x2="132" y1="8" y2="40"/>
<line x1="132" x2="236" y1="8" y2="8"/>
<line x1="132" x2="132" y1="40" y2="88"/>
<line x1="132" x2="236" y1="40" y2="40"/>
<line x1="132" x2="236" y1="88" y2="88"/>
<line x1="236" x2="236" y1="8" y2="40"/>
<line x1="236" x2="236" y1="40" y2="88"/>
</g>
<g>
<line marker-end="url(#triangle)" x1="236" x2="268" y1="24" y2="24"/>
</g>
<g>
<line x1="276" x2="276" y1="8" y2="40"/>
<line x1="276" x2="404" y1="8" y2="8"/>
<line x1="276" x2="404" y1="40" y2="40"/>
<line x1="404" x2="404" y1="8" y2="40"/>
</g>
<g>
<text x="17" y="28">
Animal*
</text>
</g>
<g>
<text x="145" y="28">
AnimalVT*
</text>
</g>
<g>
<text x="161" y="60">
Cat
</text>
</g>
<g>
<text x="161" y="76">
Data
</text>
</g>
<g>
<text x="281" y="28">
cat_say(Cat*)
</text>
</g>
</svg>