<?xml version="1.0" encoding="UTF-8"?>
<svg width="178px" height="63px" viewBox="0 0 178 63" version="1.1" xmlns="http://www.w3.org/2000/svg" xmlns:xlink="http://www.w3.org/1999/xlink">
    <!-- Generator: Sketch 51.3 (57544) - http://www.bohemiancoding.com/sketch -->
    <title>csc</title>
    <desc>Created with Sketch.</desc>
    <defs></defs>
    <g id="Page-1" stroke="none" stroke-width="1" fill="none" fill-rule="evenodd">
        <g id="csc" fill="#5F899A">
            <path d="M61.978,24.77 L61.978,0.769 L53.846,8.901 C48.189,3.399 40.485,0.003 32.032,0.003 C14.343,0.003 0,13.549 0,31.239 C0,48.927 14.343,62.473 32.032,62.473 C43.107,62.473 52.908,56.737 58.486,47.892 L49.243,42.155 C45.657,47.812 39.283,51.637 32.032,51.637 C20.797,51.637 11.713,42.553 11.713,31.239 C11.713,20.003 20.797,10.92 32.032,10.92 C37.517,10.92 42.499,13.066 46.153,16.594 L38.033,24.713 L61.978,24.77 Z" id="Fill-1"></path>
            <path d="M74.0249,45.7397 C77.8499,49.4847 83.4269,51.7157 89.7219,51.7157 C100.7959,51.7157 105.8169,39.8437 93.5459,36.4977 L83.3469,33.8677 C74.6619,31.5567 68.6869,25.6607 68.6869,17.2957 C68.4479,7.7337 78.4869,-0.2343 89.7219,0.0057 C97.4499,0.0057 104.6999,2.4747 110.1189,6.6977 L103.8239,15.6217 C99.9999,12.5137 95.2979,10.9217 89.7219,10.9217 C80.3989,10.9217 75.6979,20.4027 86.2159,23.4297 L95.7769,25.9007 C104.9399,28.2117 112.3499,34.1067 112.3499,43.8277 C112.5879,54.1857 102.0709,62.7117 89.7219,62.4717 C81.1959,62.4717 73.3869,59.6037 67.6509,54.7437 L74.0249,45.7397 Z" id="Fill-3"></path>
            <path d="M168.3179,20.4018 C164.7329,14.6658 158.3579,10.9208 151.1069,10.9208 C139.8719,10.9208 130.7879,20.0038 130.7879,31.2388 C130.7879,42.5528 139.8719,51.6368 151.1069,51.6368 C158.3579,51.6368 164.7329,47.8118 168.3179,42.1548 L177.5609,47.8918 C171.9839,56.7368 162.1829,62.4728 151.1069,62.4728 C133.4179,62.4728 119.0749,48.9268 119.0749,31.2388 C119.0749,13.5488 133.4179,0.0038 151.1069,0.0038 C162.1829,0.0038 171.9839,5.8208 177.5609,14.5858 L168.3179,20.4018 Z" id="Fill-5"></path>
            <path d="M151.1465,21.7563 C145.8875,21.7563 141.6245,26.0203 141.6245,31.2783 C141.6245,36.5373 145.8875,40.8003 151.1465,40.8003 C156.4055,40.8003 160.6685,36.5373 160.6685,31.2783 C160.6685,26.0203 156.4055,21.7563 151.1465,21.7563" id="Fill-7"></path>
        </g>
    </g>
</svg>