<?xml version="1.0" encoding="UTF-8"?>
<svg width="200px" height="70px" viewBox="0 0 200 70" version="1.1" xmlns="http://www.w3.org/2000/svg" xmlns:xlink="http://www.w3.org/1999/xlink">
    <!-- Generator: Sketch 51.2 (57519) - http://www.bohemiancoding.com/sketch -->
    <title>200x70_ferrous systems_logo</title>
    <desc>Created with Sketch.</desc>
    <defs>
        <polygon id="path-1" points="0.000403773585 0.2378 106.396358 0.2378 106.396358 23.9998 0.000403773585 23.9998"></polygon>
        <polygon id="path-3" points="0.840060417 0.55 95.0452479 0.55 95.0452479 19.0736 0.840060417 19.0736"></polygon>
    </defs>
    <g id="200x70_ferrous-systems_logo" stroke="none" stroke-width="1" fill="none" fill-rule="evenodd">
        <g id="Group" transform="translate(18.000000, 9.000000)">
            <g id="Group-7-Copy" transform="translate(57.000000, 0.000000)">
                <g id="Group-3" transform="translate(0.000000, 28.000000)">
                    <mask id="mask-2" fill="white">
                        <use xlink:href="#path-1"></use>
                    </mask>
                    <g id="Clip-2"></g>
                    <path d="M15.0369321,2.1738 C12.7273472,0.8098 10.589366,0.2378 8.0173283,0.2378 C4.10678113,0.2378 0.69489434,2.2118 0.69489434,6.0078 C0.69489434,9.2978 3.05696981,10.7158 6.29725283,11.2218 L7.46617736,11.4038 C10.0261019,11.8078 11.3646113,12.2758 11.3646113,13.5358 C11.3646113,14.9398 9.78989434,15.7338 7.75487547,15.7338 C5.3928,15.7338 3.22655472,14.8238 1.90217736,13.7698 L0.000403773585,16.6958 C1.9688,18.2678 4.9587434,19.0738 7.7407434,19.0738 C11.6916679,19.0738 15.2590075,17.1638 15.2590075,13.1458 C15.2590075,9.9738 12.6889887,8.5818 9.4083283,8.0498 L8.37063019,7.8798 C6.16602642,7.5158 4.57717736,7.1138 4.57717736,5.7738 C4.57717736,4.3958 6.0348,3.5898 8.09606415,3.5898 C10.1048377,3.5898 11.8632717,4.2538 13.3047434,5.1378 L15.0369321,2.1738 Z M30.705366,6.1518 L26.9522906,6.1518 L23.5666491,12.6258 L20.0760264,6.1518 L16.1917245,6.1518 L21.6769887,16.0718 L17.2294226,23.9998 L20.9824981,23.9998 L30.705366,6.1518 Z M42.0574604,7.0238 C40.3656491,6.2038 38.7768,5.8278 36.7417811,5.8278 C33.396517,5.8278 31.3756302,7.3618 31.3756302,9.9478 C31.3756302,12.0938 32.8332528,13.3678 35.7707057,13.7698 L36.8084038,13.9138 C38.2781396,14.1218 38.9221585,14.4598 38.9221585,15.0698 C38.9221585,15.8118 38.1610453,16.2538 36.5721962,16.2538 C34.6562906,16.2538 33.3298943,15.7338 32.2417245,15.0178 L30.8911019,17.5918 C32.5445547,18.7478 34.8137623,19.0738 36.5459509,19.0738 C40.2344226,19.0738 42.384517,17.3978 42.384517,14.7978 C42.384517,12.6658 40.8501774,11.4418 38.0944226,11.0258 L36.9658755,10.8578 C35.811083,10.6878 34.8924981,10.5058 34.8924981,9.7778 C34.8924981,9.0898 35.5486302,8.6338 36.8467623,8.6338 C38.2781396,8.6478 39.893234,9.1678 40.9026679,9.6618 L42.0574604,7.0238 Z M54.2211396,6.1518 L49.614083,6.1518 L49.614083,2.4078 L46.1921019,2.4078 L46.1921019,6.1518 L43.7371585,6.1518 L43.7371585,9.1678 L46.1921019,9.1678 L46.1921019,14.0438 C46.1921019,17.3058 47.8051774,19.0738 50.9525925,19.0738 C52.763517,19.0738 54.0495358,18.5018 55.1659698,17.7478 L53.9061962,15.0958 C53.2096868,15.5118 52.3314792,15.9158 51.5178755,15.9158 C50.4539321,15.9158 49.614083,15.3438 49.614083,13.7698 L49.614083,9.1678 L54.2211396,9.1678 L54.2211396,6.1518 Z M62.7246113,5.8138 C58.9190453,5.8138 56.2965358,8.5178 56.2965358,12.4838 C56.2965358,16.4478 58.9977811,19.0738 62.8962151,19.0738 C65.0362151,19.0738 66.871366,18.4758 68.3148566,17.1638 L66.3081019,14.9798 C65.389517,15.7458 64.196366,16.1878 63.0920453,16.1878 C61.4789698,16.1878 60.1909321,15.3958 59.8234981,13.5738 L68.8397623,13.5738 C68.8781208,13.2878 68.904366,12.8198 68.904366,12.4318 C68.8922528,8.5038 66.3868377,5.8138 62.7246113,5.8138 Z M62.698366,8.7378 C64.1701208,8.7378 65.1533094,9.6478 65.4682528,11.2618 L59.8376302,11.2618 C60.1384415,9.6998 61.0852906,8.7378 62.698366,8.7378 Z M87.2901962,5.8138 C85.6246302,5.8138 83.9570453,6.3738 82.9718377,7.9718 C82.1198755,6.6338 80.6117811,5.8138 78.7746113,5.8138 C77.3311208,5.8138 75.9381019,6.2958 75.0336491,7.6338 L75.0336491,6.1518 L71.702517,6.1518 L71.702517,18.7478 L75.1244981,18.7478 L75.1244981,11.8458 C75.1244981,9.9478 76.3459132,8.9978 77.8156491,8.9978 C79.3782528,8.9978 80.2968377,9.9998 80.2968377,11.8198 L80.2968377,18.7478 L83.7208377,18.7478 L83.7208377,11.8458 C83.7208377,9.9478 84.9422528,8.9978 86.4119887,8.9978 C87.9604604,8.9978 88.8931774,9.9998 88.8931774,11.8198 L88.8931774,18.7478 L92.3030453,18.7478 L92.3030453,10.7278 C92.3030453,7.8018 90.2821585,5.8138 87.2901962,5.8138 Z M106.067687,7.0238 C104.375875,6.2038 102.789045,5.8278 100.754026,5.8278 C97.4087623,5.8278 95.3878755,7.3618 95.3878755,9.9478 C95.3878755,12.0938 96.8434792,13.3678 99.7829509,13.7698 L100.820649,13.9138 C102.290385,14.1218 102.934404,14.4598 102.934404,15.0698 C102.934404,15.8118 102.171272,16.2538 100.584442,16.2538 C98.666517,16.2538 97.3421396,15.7338 96.2539698,15.0178 L94.9033472,17.5918 C96.5547811,18.7478 98.8239887,19.0738 100.558196,19.0738 C104.244649,19.0738 106.396762,17.3978 106.396762,14.7978 C106.396762,12.6658 104.862423,11.4418 102.106668,11.0258 L100.978121,10.8578 C99.8213094,10.6878 98.9027245,10.5058 98.9027245,9.7778 C98.9027245,9.0898 99.5588566,8.6338 100.859008,8.6338 C102.290385,8.6478 103.90346,9.1678 104.914913,9.6618 L106.067687,7.0238 Z" id="Fill-1" fill="#1D1D1B" mask="url(#mask-2)"></path>
                </g>
                <g id="Group-6">
                    <mask id="mask-4" fill="white">
                        <use xlink:href="#path-3"></use>
                    </mask>
                    <g id="Clip-5"></g>
                    <path d="M13.7248937,8.0376 L4.50383125,8.0376 L4.50383125,3.8896 L14.3412479,3.8896 L14.3412479,0.5496 L0.840060417,0.5496 L0.840060417,18.7476 L4.50383125,18.7476 L4.50383125,11.3776 L13.7248937,11.3776 L13.7248937,8.0376 Z M22.6448521,5.8156 C18.8355812,5.8156 16.2084979,8.5176 16.2084979,12.4836 C16.2084979,16.4476 18.9143937,19.0736 22.8146021,19.0736 C24.9566854,19.0736 26.7956437,18.4756 28.2405396,17.1636 L26.2318312,14.9796 C25.3123521,15.7456 24.1160187,16.1896 23.0126437,16.1896 C21.3959771,16.1896 20.1087062,15.3956 19.7409146,13.5736 L28.7639354,13.5736 C28.8043521,13.2876 28.8306229,12.8196 28.8306229,12.4316 C28.8164771,8.5036 26.3086229,5.8156 22.6448521,5.8156 Z M22.6185812,8.7376 C24.0897479,8.7376 25.0759146,9.6476 25.3911646,11.2616 L19.7530396,11.2616 C20.0561646,9.6996 21.0019146,8.7376 22.6185812,8.7376 Z M38.5366854,5.8156 C36.9745813,5.8156 35.7519771,6.3476 34.9517271,7.5296 L34.9517271,6.1516 L31.6294771,6.1516 L31.6294771,18.7476 L35.0568104,18.7476 L35.0568104,11.8856 C35.0568104,10.0116 36.1460396,9.0496 37.7364354,9.0496 C38.4316021,9.0496 39.2459979,9.2056 39.8118313,9.4536 L40.3231021,6.0876 C39.8502271,5.9176 39.2722688,5.8156 38.5366854,5.8156 Z M49.5704354,5.8156 C48.0083313,5.8156 46.7857271,6.3476 45.9854771,7.5296 L45.9854771,6.1516 L42.6632271,6.1516 L42.6632271,18.7476 L46.0905604,18.7476 L46.0905604,11.8856 C46.0905604,10.0116 47.1797896,9.0496 48.7701854,9.0496 C49.4653521,9.0496 50.2797479,9.2056 50.8455813,9.4536 L51.3568521,6.0876 C50.8839771,5.9176 50.3060188,5.8156 49.5704354,5.8156 Z M59.3452063,5.8156 C55.3904354,5.8156 52.4763938,8.6476 52.4763938,12.4436 C52.4763938,16.2396 55.3904354,19.0736 59.3452063,19.0736 C63.3121021,19.0736 66.2402896,16.2396 66.2402896,12.4436 C66.2402896,8.6476 63.3121021,5.8156 59.3452063,5.8156 Z M59.3452063,8.9716 C61.2751021,8.9716 62.7341438,10.4016 62.7341438,12.4436 C62.7341438,14.4856 61.2751021,15.9156 59.3452063,15.9156 C57.4132896,15.9156 55.9683938,14.4856 55.9683938,12.4436 C55.9683938,10.4016 57.4132896,8.9716 59.3452063,8.9716 Z M80.9782271,6.1516 L77.5650396,6.1516 L77.5650396,13.0816 C77.5650396,15.0956 76.4333729,15.9156 74.9622062,15.9156 C73.4768937,15.9156 72.3613937,15.0956 72.3613937,13.0816 L72.3613937,6.1516 L68.9340604,6.1516 L68.9340604,13.3796 C68.9340604,17.3576 71.7692896,19.0736 74.9622062,19.0736 C78.1409771,19.0736 80.9782271,17.3576 80.9782271,13.3796 L80.9782271,6.1516 Z M94.7178729,7.0236 C93.0244146,6.2036 91.4360396,5.8276 89.3990396,5.8276 C86.0484979,5.8276 84.0276646,7.3616 84.0276646,9.9476 C84.0276646,12.0936 85.4846854,13.3676 88.4249979,13.7696 L89.4637062,13.9136 C90.9348729,14.1216 91.5795187,14.4596 91.5795187,15.0696 C91.5795187,15.8116 90.8176646,16.2536 89.2272687,16.2536 C87.3094979,16.2536 85.9838313,15.7336 84.8925813,15.0176 L83.5406438,17.5916 C85.1957063,18.7476 87.4671229,19.0736 89.2009979,19.0736 C92.8930604,19.0736 95.0452479,17.3976 95.0452479,14.7976 C95.0452479,12.6656 93.5094146,11.4416 90.7509771,11.0256 L89.6213312,10.8576 C88.4654146,10.6876 87.5459354,10.5056 87.5459354,9.7776 C87.5459354,9.0896 88.2027063,8.6336 89.5041229,8.6336 C90.9348729,8.6476 92.5515396,9.1676 93.5619562,9.6616 L94.7178729,7.0236 Z" id="Fill-4" fill="#1D1D1B" mask="url(#mask-4)"></path>
                </g>
            </g>
            <g id="Group-Copy-3" transform="translate(0.000000, 4.000000)">
                <g id="Group-4">
                    <path d="M20.9387719,41.8615248 C32.4682357,41.8615248 41.8160819,32.5136786 41.8160819,20.9842148 C41.8160819,9.45475091 32.4682357,0.106904718 20.9387719,0.106904718 C9.40930799,0.106904718 0.0614617944,9.45475091 0.0614617944,20.9842148 C0.0614617944,32.5136786 9.40930799,41.8615248 20.9387719,41.8615248" id="Fill-1" fill="#009EE2"></path>
                    <polygon id="Fill-3" fill="#FEFEFE" points="27.9104237 17.7353733 18.3380659 20.4794039 17.0907793 16.1275075 27.3026549 13.1997857 26.2980223 9.69604418 12.2807885 13.7168427 17.7552429 32.8071312 21.5583331 31.7163223 19.3449663 23.9831454 28.9150563 21.2391148"></polygon>
                </g>
            </g>
        </g>
    </g>
</svg>