<svg class="bob" font-family="Fira Code" font-size="14" height="336" width="272" xmlns="http://www.w3.org/2000/svg">
<defs>
<marker id="triangle" markerHeight="8" markerWidth="8" orient="auto" refX="4" refY="2" viewBox="0 0 8 4">
<polygon fill="black" points="0,0 0,4 8,2 0,0"/>
</marker>
<marker id="clear_triangle" markerHeight="10" markerWidth="10" orient="auto" refX="1" refY="7" viewBox="0 0 20 14">
<polygon fill="none" points="2,2 2,12 18,7 2,2" stroke="black" stroke-width="2"/>
</marker>
<marker id="circle" markerHeight="5" markerWidth="5" orient="auto" refX="10" refY="10" viewBox="0 0 20 20">
<circle cx="10" cy="10" fill="black" r="8"/>
</marker>
<marker id="square" markerHeight="5" markerWidth="5" orient="auto" refX="10" refY="10" viewBox="0 0 20 20">
<rect fill="black" height="20" width="20" x="0" y="0"/>
</marker>
<marker id="open_circle" markerHeight="10" markerWidth="10" orient="auto" refX="10" refY="10" viewBox="0 0 20 20">
<circle cx="10" cy="10" fill="white" r="4" stroke="black" stroke-width="2"/>
</marker>
<marker id="big_open_circle" markerHeight="20" markerWidth="20" orient="auto" refX="20" refY="20" viewBox="0 0 40 40">
<circle cx="20" cy="20" fill="white" r="6" stroke="black" stroke-width="2"/>
</marker>
</defs>
<style type="text/css">

    line,path {
      stroke: black;
      stroke-width: 2;
      stroke-opacity: 1;
      fill-opacity: 1;
      stroke-linecap: round;
      stroke-linejoin: miter;
    }
    line.dashed {
        stroke-dasharray: 5;
    }
    circle.solid {
      fill:black;
      stroke: black;
      stroke-width: 2;
      stroke-opacity: 1;
      fill-opacity: 1;
      stroke-linecap: round;
      stroke-linejoin: miter;
    }
    circle.open {
      fill:none;
      stroke: black;
      stroke-width: 2;
      stroke-opacity: 1;
      fill-opacity: 1;
      stroke-linecap: round;
      stroke-linejoin: miter;
    }
    tspan.head{
        fill: none;
        stroke: none;
    }
    
</style>
<rect fill="white" height="336" width="272" x="0" y="0"/>
<g>
<line marker-end="url(#triangle)" x1="56" x2="60" y1="296" y2="296"/>
<line class="dashed" fill="none" x1="16" x2="56" y1="296" y2="296"/>
</g>
<g>
<line x1="76" x2="76" y1="280" y2="312"/>
<line x1="76" x2="116" y1="280" y2="280"/>
<line x1="76" x2="116" y1="312" y2="312"/>
<line x1="116" x2="116" y1="280" y2="312"/>
<line x1="116" x2="156" y1="280" y2="280"/>
<line x1="116" x2="156" y1="312" y2="312"/>
<line x1="156" x2="156" y1="280" y2="312"/>
</g>
<g>
<line marker-end="url(#triangle)" x1="100" x2="100" y1="248" y2="268"/>
<line x1="100" x2="156" y1="248" y2="248"/>
<line x1="156" x2="156" y1="248" y2="240"/>
</g>
<g>
<line x1="140" x2="140" y1="40" y2="72"/>
<line x1="140" x2="180" y1="40" y2="40"/>
<line marker-end="url(#circle)" x1="140" x2="156" y1="72" y2="72"/>
<line marker-end="url(#triangle)" marker-start="url(#circle)" x1="156" x2="156" y1="72" y2="108"/>
<line marker-start="url(#circle)" x1="156" x2="180" y1="72" y2="72"/>
<line x1="180" x2="180" y1="40" y2="72"/>
<line x1="180" x2="220" y1="40" y2="40"/>
<line x1="180" x2="220" y1="72" y2="72"/>
<line x1="220" x2="220" y1="40" y2="48"/>
<line x1="220" x2="220" y1="72" y2="64"/>
</g>
<g>
<line x1="140" x2="140" y1="120" y2="152"/>
<line x1="140" x2="180" y1="120" y2="120"/>
<line marker-end="url(#circle)" x1="140" x2="156" y1="152" y2="152"/>
<line marker-end="url(#triangle)" marker-start="url(#circle)" x1="156" x2="156" y1="152" y2="188"/>
<line marker-start="url(#circle)" x1="156" x2="180" y1="152" y2="152"/>
<line x1="180" x2="180" y1="120" y2="152"/>
<line x1="180" x2="220" y1="120" y2="120"/>
<line x1="180" x2="220" y1="152" y2="152"/>
<line x1="220" x2="220" y1="120" y2="152"/>
<line x1="220" x2="260" y1="120" y2="120"/>
<line x1="220" x2="260" y1="152" y2="152"/>
<line x1="260" x2="260" y1="120" y2="152"/>
</g>
<g>
<line x1="140" x2="140" y1="200" y2="232"/>
<line x1="140" x2="180" y1="200" y2="200"/>
<line marker-end="url(#circle)" x1="140" x2="156" y1="232" y2="232"/>
<line marker-start="url(#circle)" x1="156" x2="180" y1="232" y2="232"/>
<line x1="180" x2="180" y1="200" y2="232"/>
<line x1="180" x2="220" y1="200" y2="200"/>
<line marker-end="url(#circle)" x1="180" x2="196" y1="232" y2="232"/>
<line marker-end="url(#triangle)" marker-start="url(#circle)" x1="196" x2="196" y1="232" y2="268"/>
<line marker-start="url(#circle)" x1="196" x2="220" y1="232" y2="232"/>
<line x1="220" x2="220" y1="200" y2="232"/>
</g>
<g>
<line x1="180" x2="180" y1="280" y2="312"/>
<line x1="180" x2="220" y1="280" y2="280"/>
<line x1="180" x2="220" y1="312" y2="312"/>
<line x1="220" x2="220" y1="280" y2="312"/>
<line x1="220" x2="260" y1="280" y2="280"/>
<line x1="220" x2="260" y1="312" y2="312"/>
<line x1="260" x2="260" y1="280" y2="312"/>
</g>
<g>
<line marker-start="url(#circle)" x1="220" x2="224" y1="56" y2="56"/>
<line class="dashed" fill="none" x1="224" x2="264" y1="56" y2="56"/>
</g>
<g>
<line marker-end="url(#triangle)" x1="264" x2="268" y1="56" y2="56"/>
</g>
<g>
<text x="81" y="60">
stack:
</text>
</g>
<g>
<text x="81" y="140">
heap:
</text>
</g>
<g>
<text x="89" y="300">
x1
</text>
</g>
<g>
<text x="129" y="300">
y1
</text>
</g>
<g>
<text x="145" y="140">
ptr
</text>
</g>
<g>
<text x="153" y="60">
xs
</text>
</g>
<g>
<text x="153" y="220">
p1
</text>
</g>
<g>
<text x="185" y="140">
len
</text>
</g>
<g>
<text x="193" y="60">
p
</text>
</g>
<g>
<text x="193" y="220">
p1
</text>
</g>
<g>
<text x="193" y="300">
x2
</text>
</g>
<g>
<text x="225" y="140">
cap
</text>
</g>
<g>
<text x="233" y="300">
y2
</text>
</g>
</svg>
